<mxfile host="6385f835-ef7a-4b98-a1fc-d6dbc73b35e9" modified="2020-07-30T14:19:11.826Z" agent="5.0 (Windows NT 10.0; Win64; x64) AppleWebKit/537.36 (KHTML, like Gecko) Code/1.47.3 Chrome/78.0.3904.130 Electron/7.3.2 Safari/537.36" etag="TeA1Ik7PSMDGYSqA4vQm" version="13.1.3">
    <diagram id="6hGFLwfOUW9BJ-s0fimq" name="Page-1">
        <mxGraphModel dx="1649" dy="480" grid="1" gridSize="10" guides="1" tooltips="1" connect="1" arrows="1" fold="1" page="1" pageScale="1" pageWidth="827" pageHeight="1169" math="0" shadow="0">
            <root>
                <mxCell id="0"/>
                <mxCell id="1" parent="0"/>
                <mxCell id="21" value="" style="rounded=1;whiteSpace=wrap;html=1;fillColor=#C7C7C7;strokeColor=#000000;" parent="1" vertex="1">
                    <mxGeometry x="180" y="130" width="470" height="440" as="geometry"/>
                </mxCell>
                <mxCell id="2" value="CARSKit" style="rounded=1;whiteSpace=wrap;html=1;fontSize=16;fontColor=#000000;fillColor=#616161;fontStyle=1;strokeColor=#000000;" parent="1" vertex="1">
                    <mxGeometry x="435" y="180" width="130" height="70" as="geometry"/>
                </mxCell>
                <mxCell id="6" value="Gerenciador de comandos" style="rounded=1;whiteSpace=wrap;html=1;fontSize=16;fontColor=#000000;fillColor=#616161;fontStyle=1;strokeColor=#000000;" parent="1" vertex="1">
                    <mxGeometry x="250" y="190" width="130" height="140" as="geometry"/>
                </mxCell>
                <mxCell id="8" value="Datasets" style="strokeWidth=2;html=1;shape=mxgraph.flowchart.database;whiteSpace=wrap;fillColor=#5D66BA;strokeColor=#000000;fontColor=#000000;" parent="1" vertex="1">
                    <mxGeometry x="441.25" y="360" width="120" height="70" as="geometry"/>
                </mxCell>
                <mxCell id="9" value="Recomendações" style="strokeWidth=2;html=1;shape=mxgraph.flowchart.database;whiteSpace=wrap;fillColor=#5D66BA;strokeColor=#000000;fontColor=#000000;" parent="1" vertex="1">
                    <mxGeometry x="441.25" y="440" width="117.5" height="80" as="geometry"/>
                </mxCell>
                <mxCell id="14" style="edgeStyle=orthogonalEdgeStyle;rounded=0;orthogonalLoop=1;jettySize=auto;html=1;strokeColor=#000000;" parent="1" source="10" target="32" edge="1">
                    <mxGeometry relative="1" as="geometry">
                        <mxPoint x="447.34000000000015" y="305" as="targetPoint"/>
                        <Array as="points">
                            <mxPoint x="410" y="440"/>
                            <mxPoint x="410" y="295"/>
                        </Array>
                    </mxGeometry>
                </mxCell>
                <mxCell id="15" style="edgeStyle=orthogonalEdgeStyle;rounded=0;orthogonalLoop=1;jettySize=auto;html=1;entryX=0;entryY=0.5;entryDx=0;entryDy=0;entryPerimeter=0;strokeColor=#000000;" parent="1" source="10" target="8" edge="1">
                    <mxGeometry relative="1" as="geometry">
                        <Array as="points">
                            <mxPoint x="420" y="460"/>
                            <mxPoint x="420" y="395"/>
                        </Array>
                    </mxGeometry>
                </mxCell>
                <mxCell id="16" style="edgeStyle=orthogonalEdgeStyle;rounded=0;orthogonalLoop=1;jettySize=auto;html=1;entryX=0;entryY=0.5;entryDx=0;entryDy=0;entryPerimeter=0;strokeColor=#000000;" parent="1" source="10" target="9" edge="1">
                    <mxGeometry relative="1" as="geometry">
                        <Array as="points">
                            <mxPoint x="400" y="480"/>
                            <mxPoint x="400" y="480"/>
                        </Array>
                    </mxGeometry>
                </mxCell>
                <mxCell id="10" value="Gerenciador de dados" style="rounded=1;whiteSpace=wrap;html=1;fontSize=16;fontColor=#000000;fillColor=#616161;fontStyle=1;strokeColor=#000000;" parent="1" vertex="1">
                    <mxGeometry x="250" y="370" width="130" height="140" as="geometry"/>
                </mxCell>
                <mxCell id="19" value="" style="endArrow=classic;startArrow=classic;html=1;entryX=0.5;entryY=1;entryDx=0;entryDy=0;exitX=0.5;exitY=0;exitDx=0;exitDy=0;strokeColor=#000000;" parent="1" source="10" target="6" edge="1">
                    <mxGeometry width="50" height="50" relative="1" as="geometry">
                        <mxPoint x="170" y="420" as="sourcePoint"/>
                        <mxPoint x="220" y="370" as="targetPoint"/>
                    </mxGeometry>
                </mxCell>
                <mxCell id="20" value="" style="endArrow=classic;startArrow=classic;html=1;exitX=1;exitY=0.5;exitDx=0;exitDy=0;entryX=0;entryY=0.5;entryDx=0;entryDy=0;strokeColor=#000000;" parent="1" source="6" target="2" edge="1">
                    <mxGeometry width="50" height="50" relative="1" as="geometry">
                        <mxPoint x="360" y="130" as="sourcePoint"/>
                        <mxPoint x="410" y="80" as="targetPoint"/>
                    </mxGeometry>
                </mxCell>
                <mxCell id="22" value="API" style="text;html=1;strokeColor=none;fillColor=none;align=center;verticalAlign=middle;whiteSpace=wrap;rounded=0;fontSize=20;fontColor=#000000;fontStyle=1" parent="1" vertex="1">
                    <mxGeometry x="382" y="140" width="66" height="30" as="geometry"/>
                </mxCell>
                <mxCell id="29" value="" style="group;rotation=90;" parent="1" vertex="1" connectable="0">
                    <mxGeometry x="30" y="190" width="40" height="240" as="geometry"/>
                </mxCell>
                <mxCell id="24" value="" style="endArrow=classic;html=1;strokeColor=#000000;fontSize=20;fontColor=#000000;entryX=0.25;entryY=1;entryDx=0;entryDy=0;strokeWidth=5;" parent="29" edge="1">
                    <mxGeometry width="50" height="50" relative="1" as="geometry">
                        <mxPoint x="-20" y="127" as="sourcePoint"/>
                        <mxPoint x="140" y="127.38461538461539" as="targetPoint"/>
                    </mxGeometry>
                </mxCell>
                <mxCell id="25" value="Dados" style="text;html=1;strokeColor=none;fillColor=none;align=center;verticalAlign=middle;whiteSpace=wrap;rounded=0;fontSize=20;fontColor=#000000;rotation=0;" parent="29" vertex="1">
                    <mxGeometry x="20" y="92.3076923076923" width="60" height="36.92307692307693" as="geometry"/>
                </mxCell>
                <mxCell id="31" value="" style="group" parent="1" vertex="1" connectable="0">
                    <mxGeometry x="-69.75" y="329.5" width="239.75" height="40.5" as="geometry"/>
                </mxCell>
                <mxCell id="30" value="" style="group" parent="31" vertex="1" connectable="0">
                    <mxGeometry width="239.75" height="40.5" as="geometry"/>
                </mxCell>
                <mxCell id="28" value="" style="group;rotation=90;" parent="30" vertex="1" connectable="0">
                    <mxGeometry x="101.20216346153846" y="-109.75" width="37.34567307692308" height="260" as="geometry"/>
                </mxCell>
                <mxCell id="26" value="" style="endArrow=classic;html=1;strokeColor=#000000;fontSize=20;fontColor=#000000;entryX=0.25;entryY=1;entryDx=0;entryDy=0;strokeWidth=5;" parent="28" edge="1">
                    <mxGeometry width="50" height="50" relative="1" as="geometry">
                        <mxPoint x="-21.45216346153846" y="150.25" as="sourcePoint"/>
                        <mxPoint x="138.3173076923077" y="150" as="targetPoint"/>
                    </mxGeometry>
                </mxCell>
                <mxCell id="27" value="Configurações" style="text;html=1;strokeColor=none;fillColor=none;align=center;verticalAlign=middle;whiteSpace=wrap;rounded=0;fontSize=20;fontColor=#000000;rotation=0;" parent="28" vertex="1">
                    <mxGeometry x="30.548846153846156" y="110" width="55.32692307692308" height="40" as="geometry"/>
                </mxCell>
                <mxCell id="34" value="" style="group;" parent="1" vertex="1" connectable="0">
                    <mxGeometry x="446.25" y="270" width="110" height="70" as="geometry"/>
                </mxCell>
                <mxCell id="32" value="" style="pointerEvents=1;shadow=0;dashed=0;html=1;strokeColor=none;labelPosition=center;verticalLabelPosition=bottom;verticalAlign=top;outlineConnect=0;align=center;shape=mxgraph.office.concepts.folder;fillColor=#7FBA42;fontSize=20;fontColor=#000000;" parent="34" vertex="1">
                    <mxGeometry width="110" height="70" as="geometry"/>
                </mxCell>
                <mxCell id="33" value="&lt;font style=&quot;font-size: 14px&quot;&gt;Configurações&lt;/font&gt;" style="text;html=1;strokeColor=none;fillColor=none;align=center;verticalAlign=middle;whiteSpace=wrap;rounded=0;fontSize=20;fontColor=#000000;" parent="34" vertex="1">
                    <mxGeometry x="35" y="30" width="40" height="20" as="geometry"/>
                </mxCell>
                <mxCell id="41" value="" style="group;rotation=90;" parent="1" vertex="1" connectable="0">
                    <mxGeometry x="281.25" y="700" width="240" height="40.5" as="geometry"/>
                </mxCell>
                <mxCell id="42" value="" style="group;rotation=180;" parent="41" vertex="1" connectable="0">
                    <mxGeometry x="92.3076923076923" y="-100" width="37.38461538461539" height="260" as="geometry"/>
                </mxCell>
                <mxCell id="43" value="" style="endArrow=classic;html=1;strokeColor=#000000;fontSize=20;fontColor=#000000;strokeWidth=5;" parent="42" edge="1">
                    <mxGeometry width="50" height="50" relative="1" as="geometry">
                        <mxPoint x="9.67230769230768" y="-10" as="sourcePoint"/>
                        <mxPoint x="7.442307692307679" y="120" as="targetPoint"/>
                    </mxGeometry>
                </mxCell>
                <mxCell id="44" value="Resultados" style="text;html=1;strokeColor=none;fillColor=none;align=center;verticalAlign=middle;whiteSpace=wrap;rounded=0;fontSize=20;fontColor=#000000;rotation=90;" parent="42" vertex="1">
                    <mxGeometry x="-0.0007692307692312994" y="30" width="55.38461538461539" height="40" as="geometry"/>
                </mxCell>
                <mxCell id="45" value="" style="group;rotation=90;" parent="1" vertex="1" connectable="0">
                    <mxGeometry x="340" y="709.75" width="260" height="40.5" as="geometry"/>
                </mxCell>
                <mxCell id="46" value="" style="group;rotation=180;" parent="45" vertex="1" connectable="0">
                    <mxGeometry x="109.75" y="-159.75" width="40.5" height="260" as="geometry"/>
                </mxCell>
                <mxCell id="48" value="Logs" style="text;html=1;strokeColor=none;fillColor=none;align=center;verticalAlign=middle;whiteSpace=wrap;rounded=0;fontSize=20;fontColor=#000000;rotation=90;" parent="46" vertex="1">
                    <mxGeometry x="-21.06" y="70" width="60" height="40" as="geometry"/>
                </mxCell>
                <mxCell id="56" value="" style="rounded=0;whiteSpace=wrap;html=1;strokeColor=none;fillColor=#C7C7C7;fontSize=20;fontColor=#000000;rotation=90;" parent="1" vertex="1">
                    <mxGeometry x="404" y="525" width="20" height="108" as="geometry"/>
                </mxCell>
                <mxCell id="58" value="" style="rounded=0;whiteSpace=wrap;html=1;strokeColor=none;fillColor=#C7C7C7;fontSize=20;fontColor=#000000;" parent="1" vertex="1">
                    <mxGeometry x="170" y="290" width="20" height="108" as="geometry"/>
                </mxCell>
                <mxCell id="47" value="" style="endArrow=classic;html=1;strokeColor=#000000;fontSize=20;fontColor=#000000;strokeWidth=5;" parent="1" edge="1">
                    <mxGeometry width="50" height="50" relative="1" as="geometry">
                        <mxPoint x="438.94" y="590" as="sourcePoint"/>
                        <mxPoint x="439" y="720" as="targetPoint"/>
                    </mxGeometry>
                </mxCell>
                <mxCell id="59" value="" style="endArrow=classic;html=1;strokeColor=#000000;strokeWidth=2;fontSize=20;fontColor=#000000;exitX=0;exitY=0.5;exitDx=0;exitDy=0;entryX=0;entryY=0.5;entryDx=0;entryDy=0;" parent="1" source="58" target="6" edge="1">
                    <mxGeometry width="50" height="50" relative="1" as="geometry">
                        <mxPoint x="200" y="370" as="sourcePoint"/>
                        <mxPoint x="250" y="320" as="targetPoint"/>
                        <Array as="points">
                            <mxPoint x="220" y="344"/>
                            <mxPoint x="220" y="260"/>
                        </Array>
                    </mxGeometry>
                </mxCell>
                <mxCell id="60" value="" style="endArrow=classic;html=1;strokeColor=#000000;strokeWidth=2;fontSize=20;fontColor=#000000;exitX=0;exitY=0.5;exitDx=0;exitDy=0;entryX=1;entryY=0.5;entryDx=0;entryDy=0;" parent="1" source="10" target="56" edge="1">
                    <mxGeometry width="50" height="50" relative="1" as="geometry">
                        <mxPoint x="190" y="460" as="sourcePoint"/>
                        <mxPoint x="240" y="410" as="targetPoint"/>
                        <Array as="points">
                            <mxPoint x="210" y="440"/>
                            <mxPoint x="210" y="540"/>
                            <mxPoint x="414" y="540"/>
                        </Array>
                    </mxGeometry>
                </mxCell>
            </root>
        </mxGraphModel>
    </diagram>
</mxfile>